<?xml version="1.0" standalone="no"?>
<svg viewBox="0 0 200 200" xmlns="http://www.w3.org/2000/svg">
  <path fill="#00B123" d="M42.3,-66.3C56.3,-56.8,70.2,-47.6,76,-34.8C81.7,-22,79.2,-5.5,76.5,10.8C73.9,27.1,71.1,43.1,61.7,52.9C52.3,62.6,36.3,65.9,21.1,69.3C5.8,72.7,-8.8,76.1,-23.3,74.2C-37.9,72.4,-52.5,65.2,-62.6,54C-72.8,42.8,-78.6,27.4,-79.6,12.2C-80.7,-3.1,-77.1,-18.3,-69.2,-30C-61.4,-41.7,-49.3,-49.8,-37.1,-60.2C-24.8,-70.5,-12.4,-83.2,0.9,-84.5C14.1,-85.8,28.3,-75.9,42.3,-66.3Z" transform="translate(100 100)" />
</svg>
