<?xml version="1.0" standalone="no"?>
<svg viewBox="0 0 200 200" xmlns="http://www.w3.org/2000/svg">
  <path fill="#DBDBDB" d="M46.6,-68.8C60.9,-63.3,73.4,-51.3,77.7,-36.9C82,-22.6,78.3,-5.9,75.8,10.8C73.2,27.5,71.9,44.4,63,54.4C54,64.5,37.4,67.7,21.1,73.1C4.8,78.4,-11.3,85.8,-25,82.8C-38.7,79.9,-50,66.5,-57.4,52.6C-64.8,38.8,-68.4,24.6,-68.3,11.1C-68.2,-2.4,-64.5,-15.1,-60.8,-29.7C-57.1,-44.2,-53.3,-60.7,-43.2,-68.1C-33.1,-75.5,-16.5,-73.9,-0.2,-73.6C16.1,-73.3,32.3,-74.3,46.6,-68.8Z" transform="translate(100 100)" />
</svg>
